<svg width="1024" height="1024" xmlns="http://www.w3.org/2000/svg" class="icon" version="1.1">
 <g>
  <title>Layer 1</title>
  <path d="m331.9,502.7l320,0l0,204l-320,0l0,-204z" fill="#C2F2FF" id="svg_4"/>
  <path d="m602.4,651.2l-137.2,151.5l246.1,0l-108.9,-151.5z" fill="#FFACC2" id="svg_5"/>
  <path d="m587.9,741.7l-255,0l150.4,-166l104.6,166z" fill="#DAE5FF" id="svg_6"/>
  <path d="m456.9,366.7m-16,0a16,16 0 1 0 32,0a16,16 0 1 0 -32,0z" fill="#FFEB4D" id="svg_10"/>
  <path d="m811.9,1356.7l-576,0c-17.6,0 -32,-14.4 -32,-32l0,-448c0,-17.6 14.4,-32 32,-32l576,0c17.6,0 32,14.4 32,32l0,448c0,17.6 -14.4,32 -32,32z" fill="#FFACC2" id="svg_11"/>
  <path d="m833.9,978.7l-576,0c-17.6,0 -32,-14.4 -32,-32l0,-96l640,0l0,96c0,17.6 -14.4,32 -32,32z" fill="#FFEB4D" id="svg_12"/>
  <path d="m586.9,927.7m-193,0a193,193 0 1 0 386,0a193,193 0 1 0 -386,0z" fill="#DAE5FF" id="svg_13"/>
  <path d="m586.9,927.7m-144,0a144,144 0 1 0 288,0a144,144 0 1 0 -288,0z" fill="#FFFFFF" id="svg_14"/>
  <path d="m311.9,539.7l-58,0c-8.8,0 -16,-7.2 -16,-16s7.2,-16 16,-16l58,0c8.8,0 16,7.2 16,16s-7.2,16 -16,16z" fill="#FFFFFF" id="svg_15"/>
  <path d="m590.3,927.5m-48,0a48,48 0 1 0 96,0a48,48 0 1 0 -96,0z" fill="#FFC0F0" id="svg_16"/>
  <path d="m586.9,1079.7c83.8,0 152,-68.2 152,-152s-68.2,-152 -152,-152s-152,68.2 -152,152s68.2,152 152,152zm0,-288c75,0 136,61 136,136s-61,136 -136,136s-136,-61 -136,-136s61,-136 136,-136zm-201,-60l-58,0c-13.2,0 -24,10.8 -24,24s10.8,24 24,24l58,0c13.2,0 24,-10.8 24,-24c0,-13.3 -10.7,-24 -24,-24zm0,32l-58,0c-4.4,0 -8,-3.6 -8,-8s3.6,-8 8,-8l58,0c4.4,0 8,3.6 8,8s-3.6,8 -8,8z" fill="#9A2D2F" id="svg_17"/>
  <path d="m590.3,983.5c30.9,0 56,-25.1 56,-56s-25.1,-56 -56,-56s-56,25.1 -56,56s25.1,56 56,56zm0,-96c22.1,0 40,17.9 40,40s-17.9,40 -40,40s-40,-17.9 -40,-40s17.9,-40 40,-40z" fill="#9A2D2F" id="svg_18"/>
  <path d="m1025,918.3c-5,0 -7.5,-3 -12.7,-10.2c-5.1,-7.2 -12,-17 -25.7,-17s-20.7,9.8 -25.7,17c-5.1,7.3 -7.7,10.2 -12.7,10.2c-5,0 -7.5,-3 -12.7,-10.2c-4.4,-6.2 -10.2,-14.5 -20.6,-16.5l0,-33c2.3,1.6 4.5,4.4 7.5,8.7c5.1,7.2 12,17 25.7,17s20.7,-9.8 25.7,-17c5.1,-7.3 7.7,-10.2 12.7,-10.2s7.5,3 12.7,10.2c5.1,7.2 12,17 25.7,17c4.4,0 8,-3.6 8,-8s-3.6,-8 -8,-8c-5,0 -7.5,-3 -12.7,-10.2c-5.1,-7.2 -12,-17 -25.7,-17s-20.7,9.8 -25.7,17c-5.1,7.3 -7.7,10.2 -12.7,10.2c-5,0 -7.5,-3 -12.7,-10.2c-4.4,-6.2 -10.2,-14.5 -20.6,-16.5l0,-138.9c0,-22.1 -17.9,-40 -40,-40l-104,0l0,-196c0,-4.4 -3.6,-8 -8,-8l-320,0c-4.4,0 -8,3.6 -8,8l0,196l-136,0c-22.1,0 -40,17.9 -40,40l0,448c0,9 3,17.3 8,24l-91.6,0c-4.4,0 -8,3.6 -8,8s3.6,8 8,8l824,0c4.4,0 8,-3.6 8,-8s-3.6,-8 -8,-8l-92.4,0c5,-6.7 8,-15 8,-24l0,-242.2c2.3,1.6 4.5,4.4 7.5,8.7c5.1,7.2 12,17 25.7,17s20.7,-9.8 25.7,-17c5.1,-7.3 7.7,-10.2 12.7,-10.2s7.5,3 12.7,10.2c5.1,7.2 12,17 25.7,17c4.4,0 8,-3.6 8,-8s-3.4,-7.9 -7.8,-7.9zm-574.1,-443.6l304,0l0,188l-20.6,0l-106.4,-148.2c-1.4,-2 -3.6,-3.2 -6,-3.3c-2.4,-0.1 -4.8,0.8 -6.4,2.6l-134.9,148.9l-29.7,0l0,-188zm162.4,122.7l1.2,1.8l-18.2,-7.4c-2.6,-1.1 -5.6,-0.7 -7.8,1l-13.8,10.4l-10.8,-7.9l12,-13.3l16.4,-18.1l9.8,15.5l11.2,18zm-10,-45.8l17.4,-19.2l24.2,33.6l-19.1,-4.7c-0.6,-0.2 -1.3,-0.2 -1.9,-0.2l-0.8,0l-12.9,1.3l-6.9,-10.8zm-33.4,68c2.8,2.1 6.7,2.1 9.5,-0.1l14.9,-11.3l34.7,14.2l25.3,40.2l-151.7,0l50.2,-55.5l17.1,12.5zm71.5,-7.6c0,-0.1 -0.1,-0.2 -0.1,-0.2l-14.7,-23.2l-6.9,-11l3.6,-0.4l36.4,9l54.9,76.4l-41.3,0l-31.9,-50.6zm257.5,538.7c0,13.2 -10.7,24 -24,24l-576,0c-13.2,0 -24,-10.8 -24,-24l0,-88l163.2,0c36.8,40.5 89.9,66 148.8,66s112,-25.5 148.8,-66l163.2,0l0,88zm-497,-223c0,-102 83,-185 185,-185s185,83 185,185s-83,185 -185,185s-185,-83 -185,-185zm497,119l-150.1,0c24.6,-33.3 39.1,-74.5 39.1,-119c0,-110.8 -90.2,-201 -201,-201s-201,90.2 -201,201c0,44.5 14.5,85.7 39.1,119l-150.1,0l0,-344c0,-13.2 10.8,-24 24,-24l576,0c13.2,0 24,10.8 24,24l0,344z" fill="#9A2D2F" id="svg_19"/>
  <path d="m200.9,565.1c5.8,-1.4 10.9,-3.1 15,-5.4c11.2,-6.3 16.7,-13.3 19.8,-20.4c-3.6,-4.2 -5.8,-9.7 -5.8,-15.6c0,-12.1 9.1,-22.2 20.8,-23.8c8.4,-7.9 24.1,-14.3 55.2,-18c58.1,-6.9 69.4,-24.8 70.8,-35.3l-151.8,0c-13.2,0 -24,10.8 -24,24l0,94.5z" fill="#FFFFFF" id="svg_20"/>
  <g id="svg_21">
   <path d="m352,104.7m-32,0a32,32 0 1 0 64,0a32,32 0 1 0 -64,0z" fill="#FFEB4D" id="svg_2"/>
   <path d="m352,144.7c-22.1,0 -40,-17.9 -40,-40s17.9,-40 40,-40s40,17.9 40,40s-17.9,40 -40,40zm0,-64c-13.2,0 -24,10.8 -24,24s10.8,24 24,24s24,-10.8 24,-24s-10.8,-24 -24,-24z" fill="#9A2D2F" id="svg_3"/>
  </g>
  <ellipse fill="#FFEB4D" cx="165.99999" cy="253.59999" id="svg_22" rx="107" ry="52"/>
  <rect area="100" objects="0" nesters="1" machine="100" target="bin" id="svg_1" height="118" width="210" y="163.99999" x="435.99999" fill="#f0ad4e"/>
 </g>

</svg>