<svg width="800" height="600" xmlns="http://www.w3.org/2000/svg">
 <g>
  <title>Layer 1</title>
  <rect objects="16" area="0.55" target="bin" padding="1" machine="1" id="svg_1" height="328" width="322" y="109.8" x="406.99999" stroke="#000" fill="#fff" />
  <rect id="svg_2" height="85.0" width="48.0" y="227.8" x="665.99999" stroke="#000" fill="#fff" transform="" />
  <rect id="svg_3" height="117.0" width="63.0" y="211.8" x="602.99999" stroke="#000" fill="#fff" transform="" />
  <rect id="svg_4" height="116.0" width="72.0" y="211.8" x="530.99999" stroke="#000" fill="#fff" transform="" />
  <rect id="svg_5" height="58.0" width="104.0" y="152.8" x="514.99999" stroke="#000" fill="#fff" transform="" />
  <rect id="svg_6" height="64.44195615007152" width="18.74798823650201" y="329.6232175399714" x="477.94991939542103" stroke="#000" fill="#fff" transform="" />
  <rect id="svg_7" height="44.0" width="50.0" y="166.8" x="464.99999" stroke="#000" fill="#fff" transform="" />
  <rect id="svg_8" height="119.0" width="53.0" y="210.8" x="477.99999" stroke="#000" fill="#fff" transform="" />
  <rect id="svg_9" height="42.0" width="142.0" y="329.8" x="495.99999" stroke="#000" fill="#fff" transform="" />
  <rect id="svg_10" height="48.0" width="35.0" y="328.8" x="637.99999" stroke="#000" fill="#fff" transform="" />
  <rect id="svg_11" height="24.361963667370276" width="50.58427778199905" y="156.25528968968" x="618.6347006459587" stroke="#000" fill="#fff" transform="" />
  <rect id="svg_12" height="77.0" width="55.0" y="231.8" x="422.99999" stroke="#000" fill="#fff" transform="" />
  <rect id="svg_13" height="37.0" width="94.0" y="371.8" x="519.99999" stroke="#000" fill="#fff" transform="" />
  <rect id="svg_14" height="57.0" width="23.0" y="307.8" x="454.99999" fill="#fff" stroke="#000" transform="" />
  <rect id="svg_15" height="32.0" width="91.0" y="179.8" x="618.99999" stroke="#000" fill="#fff" transform="" />
  <rect id="svg_16" height="14.0" width="108.0" y="138.8" x="512.99999" stroke="#000" fill="#fff" transform="" />
  <rect id="svg_17" height="67.35859239987388" width="15.831351986699701" y="164.65656304005046" x="449.90012661518676" stroke="#000" fill="#fff" transform="" />
 </g>

</svg>