<svg width="800" height="600" xmlns="http://www.w3.org/2000/svg">
 <g>
  <title>Layer 1</title>
  <rect objects="16" area="0.58" target="bin" padding="1" machine="1" id="svg_1" height="328" width="322" y="113.8" x="68.99999" stroke="#000" fill="#fff" />
  <rect id="svg_2" height="85" width="48" y="246.5" x="305.59999000000005" stroke="#000" fill="#fff" transform="" />
  <rect id="svg_3" height="117" width="63" y="232.7" x="113.09998999999999" stroke="#000" fill="#fff" transform="" />
  <rect id="svg_4" height="116" width="72" y="233.60000000000002" x="176.19998999999999" stroke="#000" fill="#fff" transform="" />
  <rect id="svg_5" height="58" width="104" y="345.2" x="140.99999" stroke="#000" fill="#fff" transform="" />
  <rect id="svg_6" height="64" width="18" y="177.57902" x="325.42599500000006" stroke="#000" fill="#fff" transform="" />
  <rect id="svg_7" height="50" width="44" y="164.2" x="98.99999" stroke="#000" fill="#fff" transform="" />
  <rect id="svg_8" height="119" width="53" y="232.89999999999998" x="251.09999000000005" stroke="#000" fill="#fff" transform="" />
  <rect id="svg_9" height="42" width="142" y="181.4" x="134.19999" stroke="#000" fill="#fff" transform="" />
  <rect id="svg_10" height="48" width="35" y="175.8" x="287.89999" stroke="#000" fill="#fff" transform="" />
  <rect id="svg_11" height="50" width="24" y="334.30786" x="97.21901000000003" stroke="#000" fill="#fff" transform="" />
  <rect id="svg_12" height="55" width="77" y="346.9" x="264.89999" stroke="#000" fill="#fff" transform="" />
  <rect id="svg_13" height="94" width="37" y="223.8" x="77.69999" stroke="#000" fill="#fff" transform="" />
  <rect id="svg_14" height="57" width="23" y="345.7" x="125.09998999999999" fill="#fff" stroke="#000" transform="" />
  <rect id="svg_15" height="32" width="91" y="147.6" x="164.29999000000004" stroke="#000" fill="#fff" transform="" />
  <rect id="svg_16" height="14" width="108" y="399.2" x="154.59999000000002" stroke="#000" fill="#fff" transform="" />
  <rect id="svg_17" height="15" width="67" y="326.284325" x="317.720695" stroke="#000" fill="#fff" transform="" />
 </g>

</svg>