<svg width="1200" height="630" xmlns="http://www.w3.org/2000/svg">
 <g>
  <title>Layer 1</title>
  <rect fill="#fff" stroke="#000" x="168.56498" y="114.08689" width="400" height="300" id="svg_27" machine="1" padding="8" target="bin" area="0.75" objects="8" />
  <ellipse fill="#fff" stroke="#000" cx="960.13641" cy="369.58689" id="svg_15" rx="19.13043" ry="42.60869" />
  <ellipse fill="#fff" stroke="#000" cx="220.06498" cy="359.515461" id="svg_16" rx="42.17391" ry="47.3913" transform="rotate(0.0 220.06498 359.515461)" />
  <ellipse fill="#fff" stroke="#000" cx="366.06498" cy="340.658319" id="svg_17" rx="91.30433" ry="62.1739" transform="rotate(0.0 366.06498 340.658319)" />
  <ellipse fill="#fff" stroke="#000" cx="502.56498" cy="252.658319" id="svg_18" rx="44.7826" ry="49.56521" transform="rotate(0.0 502.56498 252.658319)" />
  <ellipse fill="#fff" stroke="#000" cx="226.136409" cy="247.801176" id="svg_19" rx="46.52173" ry="50.43477" transform="rotate(0.0 226.136409 247.801176)" />
  <ellipse fill="#fff" stroke="#000" cx="515.06498" cy="350.658319" id="svg_20" rx="43.91304" ry="34.34782" transform="rotate(0.0 515.06498 350.658319)" />
  <path fill="#fff" stroke="#000" d="M271.303327,178.6711 L351.018527,178.6711 M351.018527,178.6711 L375.651137,123.53499 M375.651137,123.53499 L400.283757,178.6711 M400.283757,178.6711 L479.998947,178.6711 M479.998947,178.6711 L415.508117,212.7467 M415.508117,212.7467 L440.142007,267.88281 M440.142007,267.88281 L375.651147,233.80628 M375.651147,233.80628 L311.160297,267.88281 M311.160297,267.88281 L335.794187,212.7467 M335.794187,212.7467 L271.303327,178.6711 M271.303327,178.6711 L271.303327,178.6711" id="svg_21" transform="rotate(0.0 366.16498 201.08689)" />
  <path fill="#fff" stroke="#000" d="m784.44324,315.86368l47.49698,0m0,0l14.67693,-30.55736m0,0l14.67694,30.55736m0,0l47.49697,0m0,0l-38.42579,18.88527m0,0l14.67769,30.55736m0,0l-38.42581,-18.88579m0,0l-38.4258,18.88579m0,0l14.6777,-30.55736m0,0l-38.4258,-18.88527m0,0l-0.00001,0" id="svg_22" />
  <path fill="#fff" stroke="#000" d="M477.525434,142.949065 L502.768604,142.949065 M502.768604,142.949065 L510.568934,116.045315 M510.568934,116.045315 L518.369274,142.949065 M518.369274,142.949065 L543.612434,142.949065 M543.612434,142.949065 L523.190314,159.576315 M523.190314,159.576315 L530.991054,186.480075 M530.991054,186.480075 L510.568934,169.852375 M510.568934,169.852375 L490.146814,186.480075 M490.146814,186.480075 L497.947554,159.576315 M497.947554,159.576315 L477.525434,142.949065 M477.525434,142.949065 L477.525434,142.949065" id="svg_23" transform="rotate(270.0 507.56498 153.88689)" />
  <path fill="#fff" stroke="#000" d="m748.16816,301.84977l28.23245,0m0,0l8.72405,-20.26085m0,0l8.72405,20.26085m0,0l28.23245,0m0,0l-22.84049,12.52175m0,0l8.7245,20.26085m0,0l-22.8405,-12.52209m0,0l-22.8405,12.52209m0,0l8.7245,-20.26085m0,0l-22.8405,-12.52175m0,0l-0.00001,0" id="svg_24" />
  <path fill="#fff" stroke="#000" d="M203.576601,135.337343 L224.833971,135.337343 M224.833971,135.337343 L231.402661,101.126383 M231.402661,101.126383 L237.971351,135.337343 M237.971351,135.337343 L259.228711,135.337343 M259.228711,135.337343 L242.031171,156.480643 M242.031171,156.480643 L248.600201,190.691603 M248.600201,190.691603 L231.402651,169.547743 M231.402651,169.547743 L214.205111,190.691603 M214.205111,190.691603 L220.774141,156.480643 M220.774141,156.480643 L203.576591,135.337343 M203.576591,135.337343 L203.576601,135.337343" id="svg_25" transform="rotate(90.0 226.76498 148.08689)" />
  <path fill="#fff" stroke="#000" d="m1092.47802,151.23955l21.92169,0m0,0l6.77397,-22.25372m0,0l6.77396,22.25372m0,0l21.92167,0m0,0l-17.73498,13.7534m0,0l6.77432,22.25374m0,0l-17.73497,-13.75378m0,0l-17.73498,13.75378m0,0l6.77432,-22.25374m0,0l-17.73498,-13.7534m0,0l-0.00002,0" id="svg_26" />
 </g>

</svg>