<svg width="800" height="600" xmlns="http://www.w3.org/2000/svg">
 <g>
  <title>Layer 1</title>
  <rect objects="8" area="0.85" target="bin" padding="1" machine="1" fill="#fff" stroke="#000" x="190.59999" y="272.4" width="314" height="174" id="svg_1" />
  <rect padding="1" fill="#fff" stroke="#000" x="603.59999" y="184.8" width="26" height="30" id="svg_2" />
  <rect transform="" padding="1" fill="#fff" stroke="#000" x="339.59999" y="260.7" width="20" height="83" id="svg_3" />
  <rect padding="1" fill="#fff" stroke="#000" x="205.59999" y="328.5" width="40" height="63" id="svg_4" transform="" />
  <rect padding="1" fill="#fff" stroke="#000" x="461.99999" y="95.9" width="26" height="95" id="svg_5" />
  <rect padding="1" fill="#fff" stroke="#000" x="454.59999" y="169.5" width="34" height="69" id="svg_6" />
  <rect padding="1" fill="#fff" stroke="#000" x="583.59999" y="90.2" width="40" height="108" id="svg_7" />
  <rect padding="1" fill="#fff" stroke="#000" x="529.29999" y="87.8" width="53" height="114" id="svg_8" />
  <rect padding="1" fill="#fff" stroke="#000" x="486.19999" y="92.7" width="44" height="103" id="svg_9" />
  <rect padding="1" fill="#fff" stroke="#000" x="427.89999" y="69.8" width="14" height="97" id="svg_10" />
  <rect padding="1" fill="#fff" stroke="#000" x="206.59999" y="415.79999999999995" width="18" height="40" id="svg_11" transform="" />
  <rect padding="1" fill="#fff" stroke="#000" x="461.19999" y="294.9" width="75" height="12" id="svg_12" transform="" />
  <rect padding="1" fill="#fff" stroke="#000" x="468.29999" y="61.2" width="43" height="8" id="svg_13" />
  <rect padding="1" fill="#fff" stroke="#000" x="484.59999" y="318.7" width="41" height="10" id="svg_14" transform="" />
  <rect padding="1" fill="#fff" stroke="#000" x="338.29999" y="384.2" width="91" height="28" id="svg_15" transform="" />
  <rect padding="1" fill="#fff" stroke="#000" x="320.09999" y="435.9" width="65" height="5" id="svg_16" transform="" />
  <rect padding="1" fill="#fff" stroke="#000" x="301.19998999999996" y="339.0" width="92" height="28" id="svg_17" transform="" />
 </g>

</svg>