<svg width="800" height="600" xmlns="http://www.w3.org/2000/svg">

 <g>
  <title>Layer 1</title>
  <rect objects="4" area="0.76" target="bin" padding="0" machine="1" id="svg_1" height="393.99999" width="162" y="104.99999" x="98.59999" stroke="#000" fill="#fff" />
  <ellipse ry="20.5" rx="152" id="svg_2" cy="172.49999" cx="473.59999" stroke="#000" fill="#fff" />
  <ellipse ry="91.5" rx="35" id="svg_3" cy="200.99999" cx="133.428273" stroke="#000" fill="#fff" transform="rotate(180.0 133.428273 200.99999)" />
  <ellipse ry="48" rx="94" id="svg_4" cy="333.99999" cx="742.59998" stroke="#000" fill="#fff" />
  <ellipse ry="62.5" rx="36" id="svg_5" cy="265.49999" cx="711.59998" stroke="#000" fill="#fff" />
  <ellipse ry="75" rx="14.5" id="svg_6" cy="198.505145" cx="183.208237" stroke="#000" fill="#fff" transform="rotate(0.0 183.208237 198.505145)" />
  <ellipse ry="39" rx="99.5" id="svg_7" cy="274.99999" cx="387.09999" stroke="#000" fill="#fff" />
  <ellipse ry="87.5" rx="29" id="svg_8" cy="203.99999" cx="231.630293" stroke="#000" fill="#fff" transform="rotate(0.0 231.630293 203.99999)" />
  <ellipse ry="110.5" rx="77.5" id="svg_9" cy="382.99999" cx="183.226253" stroke="#000" fill="#fff" transform="rotate(0.0 183.226253 382.99999)" />
  <ellipse ry="102" rx="35.5" id="svg_10" cy="290.99999" cx="682.09998" stroke="#000" fill="#fff" />
  <ellipse ry="65.5" rx="14" id="svg_11" cy="392.49999" cx="391.59999" stroke="#000" fill="#fff" />
  <ellipse ry="94" rx="8" id="svg_12" cy="386.99999" cx="472.59999" stroke="#000" fill="#fff" />
  <ellipse ry="48" rx="86.5" id="svg_13" cy="487.99999" cx="448.09999" stroke="#000" fill="#fff" />
  <ellipse ry="34" rx="132" id="svg_14" cy="396.99999" cx="541.59998" stroke="#000" fill="#fff" />
  <ellipse ry="104" rx="19.5" id="svg_15" cy="250.99999" cx="522.09998" stroke="#000" fill="#fff" />
  <ellipse ry="61.5" rx="48" id="svg_16" cy="154.49999" cx="620.59998" stroke="#000" fill="#fff" />
 </g>
</svg>