<svg width="800" height="600" xmlns="http://www.w3.org/2000/svg">
 <g>
  <title>Layer 1</title>
  <rect fill="#fff" stroke="#000" x="452.59999" y="62.4" width="206" height="232" id="svg_1" machine="1" padding="0" target="bin" area="0.40" objects="10" />
  <rect fill="#fff" stroke="#000" x="189.59999" y="81.4" width="107" height="214" id="svg_2" machine="1" padding="0" target="bin" area="0.60" objects="4" />
  <rect padding="0" fill="#fff" stroke="#000" x="220.39999" y="159.3" width="62.0" height="89.0" id="svg_3" transform="" />
  <rect padding="0" fill="#fff" stroke="#000" x="216.69998999999999" y="100.0" width="68.99999999999997" height="56.0" id="svg_4" transform="" />
  <rect padding="0" fill="#fff" stroke="#000" x="189.19998999999999" y="178.5" width="34.0" height="41.0" id="svg_5" transform="" />
  <rect padding="0" fill="#fff" stroke="#000" x="216.69998999999999" y="235.10000000000002" width="68.99999999999997" height="43.0" id="svg_6" transform="" />
  <rect padding="0" fill="#fff" stroke="#000" x="508.19998999999996" y="203.70000000000002" width="44.0" height="43.0" id="svg_7" transform="" />
  <rect padding="0" fill="#fff" stroke="#000" x="595.29999" y="159.8" width="43.0" height="44.0" id="svg_8" transform="" />
  <rect padding="0" fill="#fff" stroke="#000" x="465.29999" y="159.8" width="43.0" height="44.0" id="svg_9" transform="" />
  <rect padding="0" fill="#fff" stroke="#000" x="552.29999" y="109.0" width="43.0" height="44.0" id="svg_10" transform="" />
  <rect padding="0" fill="#fff" stroke="#000" x="464.19999" y="203.70000000000002" width="44.0" height="43.0" id="svg_11" transform="" />
  <rect padding="0" fill="#fff" stroke="#000" x="560.89999" y="161.8" width="43.0" height="44.0" id="svg_12" transform="" />
  <rect padding="0" fill="#fff" stroke="#000" x="464.19999" y="116.69999999999999" width="44.0" height="43.0" id="svg_13" transform="" />
  <rect padding="0" fill="#fff" stroke="#000" x="552.19999" y="197.1" width="44.0" height="43.0" id="svg_14" transform="" />
  <rect padding="0" fill="#fff" stroke="#000" x="508.19998999999996" y="160.7" width="44.0" height="43.0" id="svg_15" transform="" />
  <rect padding="0" fill="#fff" stroke="#000" x="508.19998999999996" y="117.69999999999999" width="44.0" height="43.0" id="svg_16" transform="" />
 </g>

</svg>