<svg width="800" height="600" xmlns="http://www.w3.org/2000/svg">
 <g>
  <title>Layer 1</title>
  <rect objects="8" area="0.90" target="bin" padding="0" machine="1" id="svg_1" height="369.99999" width="367.99999" y="93.6" x="13.99999" stroke="#000" fill="#fff" />
  <rect id="svg_2" height="50" width="46" y="135.6" x="503.99999" stroke="#000" fill="#fff" />
  <rect id="svg_3" height="160" width="66" y="285.6" x="306.99999" stroke="#000" fill="#fff" transform="rotate(0.0 339.99999 365.6)" />
  <rect id="svg_4" height="131" width="105" y="306.6" x="28.99999" stroke="#000" fill="#fff" transform="rotate(90.0 81.49999 372.1)" />
  <rect id="svg_5" height="60" width="91" y="336.6" x="631.99998" stroke="#000" fill="#fff" />
  <rect id="svg_6" height="100" width="104" y="453.59999" x="625.99998" stroke="#000" fill="#fff" />
  <rect id="svg_7" height="120" width="65" y="429.6" x="501.99999" stroke="#000" fill="#fff" />
  <rect id="svg_8" height="87" width="36" y="71.1" x="299.49999" stroke="#000" fill="#fff" transform="rotate(90.0 317.49999 114.6)" />
  <rect id="svg_9" height="35" width="63" y="424.6" x="83.99999" stroke="#000" fill="#fff" transform="rotate(0.0 115.49999 442.1)" />
  <rect id="svg_10" height="91" width="125" y="368.6" x="529.99999" stroke="#000" fill="#fff" />
  <rect id="svg_11" height="131" width="80" y="253.6" x="606.99998" stroke="#000" fill="#fff" />
  <rect id="svg_12" height="94" width="98" y="118.6" x="611.99998" stroke="#000" fill="#fff" />
  <rect id="svg_13" height="86" width="147" y="196.6" x="402.99999" stroke="#000" fill="#fff" />
  <rect id="svg_14" height="105" width="153" y="156.6" x="249.99999" stroke="#000" fill="#fff" transform="rotate(90.0 326.49999 209.1)" />
  <rect id="svg_15" height="131" width="72" y="18.6" x="643.99998" stroke="#000" fill="#fff" />
  <rect id="svg_16" height="222" width="124" y="97.6" x="22.99999" stroke="#000" fill="#fff" transform="rotate(0.0 84.99999 208.6)" />
  <rect id="svg_17" height="133" width="160" y="318.6" x="146.99999" stroke="#000" fill="#fff" transform="rotate(0.0 226.99999 385.1)" />
  <rect id="svg_18" height="257" width="60" y="141.6" x="659.99998" stroke="#000" fill="#fff" />
  <rect id="svg_19" height="220" width="127" y="98.6" x="146.99999" stroke="#000" fill="#fff" transform="rotate(0.0 210.49999 208.6)" />
 </g>

</svg>