<svg width="800" height="600" xmlns="http://www.w3.org/2000/svg">

 <g>
  <title>Layer 1</title>
  <rect area="100" objects="0" nesters="1" machine="100" target="bin" id="svg_1" height="364.99999" width="173" y="74.99999" x="229.59999" stroke="#000" fill="#f0ad4e" />
  <path id="svg_2" d="M240.72692999999998,260.75696 L288.09104999999994,260.75696 L302.72693,199.64222999999998 L317.36282,260.75696 L364.72693999999996,260.75696 L326.40862999999996,298.52751 L341.0452699999999,359.64224 L302.72693999999984,321.87066 L264.40861999999987,359.64224 L279.0452599999999,298.52751 L240.72693999999996,260.75695999999994 L288.09104999999994,260.75696 L302.72693,199.64222999999998 L317.36282,260.75696 L364.72693999999996,260.75696 L326.40862999999996,298.52751 L341.0452699999999,359.64224 L302.72693999999984,321.87066 L264.40861999999987,359.64224 L279.0452599999999,298.52751 L240.72693999999996,260.75695999999994 L240.72692999999998,260.75696" stroke="#000" fill="#fff" transform="" />
  <path id="svg_3" d="m528.94699,385.47041l55.76745,0l17.23257,-90.90817l17.23258,90.90817l55.76744,0l-45.11674,56.1837l17.23346,90.90817l-45.11676,-56.18523l-45.11675,56.18523l17.23347,-90.90817l-45.11675,-56.1837z" stroke="#000" fill="#fff" />
  <path id="svg_4" d="M1133.0210804947476,-138.01662910120308 L1149.0577419223173,-137.5768647397473 L1155.4476617416012,-189.7507894853128 L1158.9686561677609,-137.30508330355025 L1175.00531759533,-136.86531894209452 L1161.1448681709323,-104.89221848125857 L1164.6661125031462,-52.446505446462766 L1152.5787604711545,-85.13203822729571 L1138.7182869240787,-53.15805809714897 L1145.1084566494171,-105.33197598968093 L1149.0577419223173,-137.5768647397473 L1155.4476617416012,-189.7507894853128 L1158.9686561677609,-137.30508330355025 L1175.00531759533,-136.86531894209452 L1161.1448681709323,-104.89221848125857 L1164.6661125031462,-52.446505446462766 L1152.5787604711545,-85.13203822729571 L1138.7182869240787,-53.15805809714897 L1145.1084566494171,-105.33197598968093 L1133.0210804947476,-138.01662910120308" stroke="#000" fill="#fff" transform="" />
  <path id="svg_5" d="M1354.348791610797,955.3843071061025 L1379.5208548340077,956.7659047643202 L1389.8321344181677,911.0442679097349 L1395.0775802184878,957.6197535398514 L1420.2496334567265,959.0013506500326 L1398.3196336507003,986.4046693652119 L1403.5654788498803,1032.9801769167946 L1384.7663333962148,1003.3406110186236 L1362.8362908433298,1030.7447085615795 L1373.1479698263497,985.0230936284602 L1354.3487816258257,955.3843065580659 L1379.5208548340077,956.7659047643202 L1389.8321344181677,911.0442679097349 L1395.0775802184878,957.6197535398514 L1420.2496334567265,959.0013506500326 L1398.3196336507003,986.4046693652119 L1403.5654788498803,1032.9801769167946 L1384.7663333962148,1003.3406110186236 L1362.8362908433298,1030.7447085615795 L1373.1479698263497,985.0230936284602 L1354.3487816258257,955.3843065580659 L1354.348791610797,955.3843071061025" stroke="#000" fill="#fff" transform="" />
 </g>
</svg>