<svg width="800" height="600" xmlns="http://www.w3.org/2000/svg">
 <g>
  <title>Layer 1</title>
  <rect fill="#fff" stroke="#000" x="460.59999" y="100.4" width="220" height="309" id="svg_1" machine="1" padding="0" target="bin" area="0.00" objects="0" />
  <rect fill="#fff" stroke="#000" x="159.59999" y="212.4" width="26" height="59" id="svg_2" />
  <rect fill="#fff" stroke="#000" x="205.59999" y="159.4" width="23" height="45" id="svg_3" />
  <rect fill="#fff" stroke="#000" x="213.59999" y="271.4" width="83" height="24" id="svg_4" />
  <rect fill="#fff" stroke="#000" x="88.59999" y="327.4" width="104" height="49" id="svg_5" />
  <rect fill="#fff" stroke="#000" x="329.59999" y="179.4" width="55" height="81" id="svg_6" />
  <rect fill="#fff" stroke="#000" x="340.59999" y="317.4" width="54" height="70" id="svg_7" />
  <rect fill="#fff" stroke="#000" x="276.59999" y="389.4" width="50" height="79" id="svg_8" />
  <rect fill="#fff" stroke="#000" x="260.59999" y="359.4" width="43" height="22" id="svg_9" />
  <rect fill="#fff" stroke="#000" x="141.59999" y="400.4" width="23" height="12" id="svg_10" />
  <rect fill="#fff" stroke="#000" x="80.59999" y="448.4" width="144" height="40" id="svg_11" />
  <rect fill="#fff" stroke="#000" x="333.59999" y="500.4" width="28" height="36" id="svg_12" />
  <rect fill="#fff" stroke="#000" x="401.59999" y="432.4" width="14" height="48" id="svg_13" />
  <rect fill="#fff" stroke="#000" x="442.59999" y="392.4" width="15" height="63" id="svg_14" />
  <rect fill="#fff" stroke="#000" x="427.59999" y="293.4" width="4" height="28" id="svg_15" />
  <rect fill="#fff" stroke="#000" x="378.59999" y="280.4" width="47" height="43" id="svg_16" />
  <rect fill="#fff" stroke="#000" x="237.59999" y="184.4" width="85" height="14" id="svg_17" />
  <rect fill="#fff" stroke="#000" x="294.59999" y="122.4" width="3" height="25" id="svg_18" />
  <rect fill="#fff" stroke="#000" x="104.59999" y="133.4" width="68" height="26" id="svg_19" />
  <rect fill="#fff" stroke="#000" x="74.59999" y="191.4" width="27" height="130" id="svg_20" />
 </g>

</svg>