<svg width="800" height="600" xmlns="http://www.w3.org/2000/svg">
 <g>
  <title>Layer 1</title>
  <rect fill="#fff" stroke="#000" x="61.59999" y="254.4" width="339.99999" height="269" id="svg_1" machine="1" padding="0" target="bin" area="0.79" objects="12" />
  <path fill="#fff" stroke="#000" d="m448.60289,140.4l0,25.97387m0,0l33.99507,8.02613m0,0l-33.99507,8.02613m0,0l0,25.97387m0,0l-21.00986,-21.01327m0,0l-33.99507,8.02654m0,0l21.01043,-21.01327m0,0l-21.01043,-21.01327m0,0l33.99507,8.02654m0,0l21.00986,-21.01327" id="svg_2" />
  <path fill="#fff" stroke="#000" d="M348.483312,396.917463 L332.822602,396.917463 M332.822602,396.917463 L327.983322,416.015813 M327.983322,416.015813 L323.144042,396.917463 M323.144042,396.917463 L307.483332,396.917463 M307.483332,396.917463 L320.153092,385.114163 M320.153092,385.114163 L315.313562,366.015823 M315.313562,366.015823 L327.983332,377.819433 M327.983332,377.819433 L340.653092,366.015823 M340.653092,366.015823 L335.813562,385.114163 M335.813562,385.114163 L348.483322,396.917463 M348.483322,396.917463 L348.483312,396.917463" id="svg_3" transform="" />
  <path fill="#fff" stroke="#000" d="m119.89999,305.97798l-17.18859,0m0,0l-5.31141,31.70325m0,0l-5.31142,-31.70325m0,0l-17.18858,0m0,0l13.90583,-19.59346m0,0l-5.31167,-31.70325m0,0l13.90584,19.594m0,0l13.90583,-19.594m0,0l-5.31167,31.70325m0,0l13.90584,19.59346m0,0l0,0" id="svg_4" />
  <path fill="#fff" stroke="#000" d="m495.41816,139.71741l-18.33449,0m0,0l-5.6655,22.91801m0,0l-5.6655,-22.91801m0,0l-18.33449,0m0,0l14.83289,-14.16396m0,0l-5.66579,-22.91801m0,0l14.8329,14.16433m0,0l14.83289,-14.16433m0,0l-5.66579,22.91801m0,0l14.8329,14.16396m0,0l-0.00002,0" id="svg_5" />
  <path fill="#fff" stroke="#000" d="m121.30908,446.40034l28.64766,0m0,0l8.85235,-32.46721m0,0l8.85235,32.46721m0,0l28.64765,0m0,0l-23.1764,20.0656m0,0l8.8528,32.46721m0,0l-23.17641,-20.06616m0,0l-23.17641,20.06616m0,0l8.85281,-32.46721m0,0l-23.17641,-20.0656m0,0l0.00001,0" id="svg_6" />
  <path fill="#fff" stroke="#000" d="m549.99555,306.4l0,-33.61325m0,0l-25.5918,-10.38675m0,0l25.5918,-10.38676m0,0l0,-33.61324m0,0l15.81642,27.19364m0,0l25.5918,-10.38729m0,0l-15.81685,27.19365m0,0l15.81685,27.19364m0,0l-25.5918,-10.38729m0,0l-15.81642,27.19365m0,0l0,0" id="svg_7" />
  <path fill="#fff" stroke="#000" d="m433.05453,275.84676l-29.79356,0m0,0l-9.20644,28.64753m0,0l-9.20643,-28.64753m0,0l-29.79355,0m0,0l24.10345,-17.70494m0,0l-9.20692,-28.64753m0,0l24.10345,17.70542m0,0l24.10347,-17.70542m0,0l-9.20692,28.64753m0,0l24.10345,17.70494m0,0l0,0" id="svg_8" />
  <path fill="#fff" stroke="#000" d="m235.66398,300.2l0,-16.80662m0,0l-40.10654,-5.19337m0,0l40.10654,-5.19338m0,0l0,-16.80662m0,0l24.78692,13.59681m0,0l40.10654,-5.19364m0,0l-24.7876,13.59682m0,0l24.7876,13.59682m0,0l-40.10654,-5.19364m0,0l-24.78692,13.59682m0,0l0,0" id="svg_9" />
  <path fill="#fff" stroke="#000" d="m422.43514,292.58181l0,26.73781m0,0l13.36885,8.26219m0,0l-13.36885,8.26219m0,0l0,26.73781m0,0l-8.2623,-21.6313m0,0l-13.36885,8.26262m0,0l8.26254,-21.63131m0,0l-8.26254,-21.63131m0,0l13.36885,8.26262m0,0l8.2623,-21.63131m0,0l0,-0.00001" id="svg_10" />
  <path fill="#fff" stroke="#000" d="m123.93332,488.55734l-25.97387,0m0,0l-8.02613,32.08523m0,0l-8.02613,-32.08523m0,0l-25.97387,0m0,0l21.01327,-19.82953m0,0l-8.02654,-32.08523m0,0l21.01328,19.83007m0,0l21.01327,-19.83007m0,0l-8.02654,32.08523m0,0l21.01327,19.82953m0,0l-0.00001,0" id="svg_11" />
  <path fill="#fff" stroke="#000" d="M121.395662,375.443973 L121.395662,330.371673 M121.395662,330.371673 L81.671102,316.443973 M81.671102,316.443973 L121.395672,302.516283 M121.395662,302.516283 L121.395662,257.443973 M121.395662,257.443973 L145.946522,293.908173 M145.946522,293.908173 L185.671092,279.979763 M185.671092,279.979763 L161.119572,316.443973 M161.119572,316.443973 L185.671092,352.908193 M185.671092,352.908193 L145.946522,338.979763 M145.946522,338.979763 L121.395662,375.443973 M121.395662,375.443973 L121.395662,375.443973" id="svg_12" transform="" />
  <rect id="svg_13" height="132" width="131" y="254.4" x="182.59999" stroke="#000" fill="#fff" transform="" />
  <rect id="svg_14" height="45" width="63" y="477.4" x="214.59999" stroke="#000" fill="#fff" transform="" />
  <rect id="svg_15" height="64" width="76" y="455.4" x="116.59999" stroke="#000" fill="#fff" transform="" />
  <rect id="svg_16" height="91" width="110" y="386.4" x="192.59999" stroke="#000" fill="#fff" transform="" />
  <rect id="svg_17" height="93" width="87" y="274.4" x="313.59999" stroke="#000" fill="#fff" transform="" />
  <rect id="svg_18" height="69" width="92" y="386.4" x="100.59999" stroke="#000" fill="#fff" transform="" />
  <path id="svg_19" d="M87.59999,386.400003 L87.59999,341.399993 M87.59999,341.399993 L124.59999,386.400003 M124.59999,386.400003 L87.59999,386.400003" stroke="#000" fill="#fff" transform="" />
  <path id="svg_20" d="m297.50996,171.40598l0,-92l41.99998,92l-41.99998,0z" stroke="#000" fill="#fff" />
  <path id="svg_21" d="M368.34999,502.14999 L269.34999,502.14999 M269.34999,502.14999 L368.34999,355.15003 M368.34999,355.15003 L368.34999,502.14999 M368.34999,502.14999 L368.34999,502.14999" stroke="#000" fill="#fff" transform="" />
  <path id="svg_22" d="m573.12498,183.436l0,-110.00001l111.99998,110.00001l-111.99998,0z" stroke="#000" fill="#fff" />
  <path id="svg_23" d="M61.59997,473.399993 L61.59997,294.400013 M61.59997,294.400013 L105.60003,473.399993 M105.60003,473.399993 L61.59997,473.399993" stroke="#000" fill="#fff" transform="" />
  <path id="svg_24" d="m660.68503,545.73599l0,-134.00002l37,134.00002l-37,0z" stroke="#000" fill="#fff" />
  <path id="svg_25" d="M302.599987,422.400007 L302.599987,390.399987 M302.599987,390.399987 L335.599997,422.400007 M335.599997,422.400007 L302.599987,422.400007" stroke="#000" fill="#fff" transform="" />
  <path id="svg_26" d="m573.12499,396.40098l0,-117.00002l81.00004,117.00002l-81.00004,0z" stroke="#000" fill="#fff" />
 </g>

</svg>