<svg xmlns="http://www.w3.org/2000/svg" xmlns:xlink="http://www.w3.org/1999/xlink" width="16" zoomAndPan="magnify" viewBox="0 0 375 374.999991" height="16" preserveAspectRatio="xMidYMid meet" version="1.0"><defs><g/><clipPath id="c5120d0c95"><path d="M 264.542969 234.644531 L 324.363281 234.644531 L 324.363281 294.460938 L 264.542969 294.460938 Z M 264.542969 234.644531 " clip-rule="nonzero"/></clipPath><clipPath id="f1e95af80e"><path d="M 294.453125 234.644531 C 277.933594 234.644531 264.542969 248.035156 264.542969 264.554688 C 264.542969 281.070312 277.933594 294.460938 294.453125 294.460938 C 310.972656 294.460938 324.363281 281.070312 324.363281 264.554688 C 324.363281 248.035156 310.972656 234.644531 294.453125 234.644531 Z M 294.453125 234.644531 " clip-rule="nonzero"/></clipPath><clipPath id="0114846224"><path d="M 26.664062 33.890625 L 126.796875 33.890625 L 126.796875 134.023438 L 26.664062 134.023438 Z M 26.664062 33.890625 " clip-rule="nonzero"/></clipPath><clipPath id="c10d316b5f"><path d="M 76.730469 33.890625 C 49.078125 33.890625 26.664062 56.304688 26.664062 83.957031 C 26.664062 111.609375 49.078125 134.023438 76.730469 134.023438 C 104.382812 134.023438 126.796875 111.609375 126.796875 83.957031 C 126.796875 56.304688 104.382812 33.890625 76.730469 33.890625 Z M 76.730469 33.890625 " clip-rule="nonzero"/></clipPath><clipPath id="322450f192"><path d="M 281.820312 251.917969 L 307.085938 251.917969 L 307.085938 277.1875 L 281.820312 277.1875 Z M 281.820312 251.917969 " clip-rule="nonzero"/></clipPath><clipPath id="ca3b3952a4"><path d="M 294.453125 251.917969 C 287.476562 251.917969 281.820312 257.574219 281.820312 264.554688 C 281.820312 271.53125 287.476562 277.1875 294.453125 277.1875 C 301.429688 277.1875 307.085938 271.53125 307.085938 264.554688 C 307.085938 257.574219 301.429688 251.917969 294.453125 251.917969 Z M 294.453125 251.917969 " clip-rule="nonzero"/></clipPath></defs><g fill="#66fcf1" fill-opacity="1"><g transform="translate(66.31164, 263.837693)"><g><path d="M 110.9375 -172.03125 L 110.9375 -137.625 L 51.71875 -137.625 L 51.71875 -103.4375 L 108.4375 -103.4375 L 108.4375 -69.03125 L 51.71875 -69.03125 L 51.71875 -34.40625 L 110.9375 -34.40625 L 110.9375 0 L 12.515625 0 L 12.515625 -172.03125 Z M 110.9375 -172.03125 "/></g></g></g><g fill="#66fcf1" fill-opacity="1"><g transform="translate(171.24285, 274.65483)"><g><path d="M 12.515625 -172.03125 L 62.34375 -172.03125 C 86.257812 -172.03125 106.695312 -163.863281 123.65625 -147.53125 C 140.613281 -131.195312 149.09375 -110.726562 149.09375 -86.125 C 149.09375 -61.375 140.644531 -40.832031 123.75 -24.5 C 106.863281 -8.164062 86.394531 0 62.34375 0 L 12.515625 0 Z M 51.71875 -35.03125 L 57.765625 -35.03125 C 72.078125 -35.03125 83.785156 -39.859375 92.890625 -49.515625 C 102.003906 -59.179688 106.628906 -71.316406 106.765625 -85.921875 C 106.765625 -100.515625 102.210938 -112.675781 93.109375 -122.40625 C 84.003906 -132.132812 72.222656 -137 57.765625 -137 L 51.71875 -137 Z M 51.71875 -35.03125 "/></g></g></g><g clip-path="url(#c5120d0c95)"><g clip-path="url(#f1e95af80e)"><path fill="#000000" d="M 264.542969 234.644531 L 324.363281 234.644531 L 324.363281 294.460938 L 264.542969 294.460938 Z M 264.542969 234.644531 " fill-opacity="1" fill-rule="nonzero"/></g></g><g clip-path="url(#0114846224)"><g clip-path="url(#c10d316b5f)"><path fill="#000000" d="M 26.664062 33.890625 L 126.796875 33.890625 L 126.796875 134.023438 L 26.664062 134.023438 Z M 26.664062 33.890625 " fill-opacity="1" fill-rule="nonzero"/></g></g><g clip-path="url(#322450f192)"><g clip-path="url(#ca3b3952a4)"><path fill="#66fcf1" d="M 281.820312 251.917969 L 307.085938 251.917969 L 307.085938 277.1875 L 281.820312 277.1875 Z M 281.820312 251.917969 " fill-opacity="1" fill-rule="nonzero"/></g></g></svg>