<?xml version="1.0" encoding="UTF-8"?>
<svg version="1.1" xmlns="http://www.w3.org/2000/svg" width="184" height="283">
<path d="M0 0 C31.35 0 62.7 0 95 0 C95 15.00370325 94.68128307 30.01177247 94 45 C108.85 45 123.7 45 139 45 C139 108.69 139 172.38 139 238 C124.15 238 109.3 238 94 238 C94 252.85 94 267.7 94 283 C63.31 283 32.62 283 1 283 C0.34828078 268.01045787 0 253.00370325 0 238 C-14.52 238 -29.04 238 -44 238 C-44.17367124 223.8333887 -44.34281419 209.66679491 -44.5 195.5 C-44.51187725 194.43008442 -44.5237545 193.36016884 -44.53599167 192.25783157 C-44.92240347 157.15050715 -45.09092867 122.04690211 -45.0625 86.9375 C-45.06164398 85.87258331 -45.06078796 84.80766663 -45.05990601 83.71047974 C-45.04874262 70.80695891 -45.02578982 57.90350872 -45 45 C-30.15 45 -15.3 45 0 45 C0 30.15 0 15.3 0 0 Z " fill="#A2B8DB" transform="translate(45,0)"/>
<path d="M0 0 C31.35 0 62.7 0 95 0 C95 15.00370325 94.68128307 30.01177247 94 45 C108.85 45 123.7 45 139 45 C139 108.69 139 172.38 139 238 C124.15 238 109.3 238 94 238 C94 252.85 94 267.7 94 283 C63.31 283 32.62 283 1 283 C0.34828078 268.01045787 0 253.00370325 0 238 C-14.52 238 -29.04 238 -44 238 C-44.17367124 223.8333887 -44.34281419 209.66679491 -44.5 195.5 C-44.51187725 194.43008442 -44.5237545 193.36016884 -44.53599167 192.25783157 C-44.92240347 157.15050715 -45.09092867 122.04690211 -45.0625 86.9375 C-45.06164398 85.87258331 -45.06078796 84.80766663 -45.05990601 83.71047974 C-45.04874262 70.80695891 -45.02578982 57.90350872 -45 45 C-30.15 45 -15.3 45 0 45 C0 30.15 0 15.3 0 0 Z M6 7 C6 21.52 6 36.04 6 51 C-8.85 51 -23.7 51 -39 51 C-39 110.73 -39 170.46 -39 232 C-24.15 232 -9.3 232 6 232 C6 246.52 6 261.04 6 276 C33.06 276 60.12 276 88 276 C88 261.48 88 246.96 88 232 C102.52 232 117.04 232 132 232 C132 172.27 132 112.54 132 51 C117.48 51 102.96 51 88 51 C88 36.48 88 21.96 88 7 C60.94 7 33.88 7 6 7 Z " fill="#020303" transform="translate(45,0)"/>
<path d="M0 0 C12.54 0 25.08 0 38 0 C38 18.15 38 36.3 38 55 C25.46 55 12.92 55 0 55 C0 36.85 0 18.7 0 0 Z " fill="#070709" transform="translate(73,114)"/>
<path d="M0 0 C7.26 0 14.52 0 22 0 C22 12.87 22 25.74 22 39 C14.74 39 7.48 39 0 39 C0 26.13 0 13.26 0 0 Z " fill="#FBFBFB" transform="translate(81,122)"/>
</svg>
