<?xml version="1.0" encoding="UTF-8"?>
<svg version="1.1" xmlns="http://www.w3.org/2000/svg" width="82" height="195">
<path d="M0 0 C2.80590014 3.74120019 4.4867985 7.203356 6.1953125 11.48046875 C6.4997226 12.22835159 6.80413269 12.97623444 7.11776733 13.7467804 C7.77808523 15.37084169 8.43574967 16.9959838 9.09106445 18.62207031 C10.50650821 22.13410881 11.93469336 25.6409209 13.36212158 29.14810181 C14.11110147 30.98863814 14.85942293 32.82944253 15.6071167 34.67050171 C19.17460711 43.45007777 22.80228414 52.20415107 26.44134521 60.95425415 C32.3324561 75.1206012 38.18580498 89.30192097 44 103.5 C51.28496898 121.28840569 58.64034294 139.04714393 66.0123291 156.79963684 C68.24751247 162.18340819 70.47740092 167.56934282 72.703125 172.95703125 C72.98798767 173.64641785 73.27285034 174.33580444 73.56634521 175.04608154 C74.88203394 178.2303879 76.19696001 181.4150039 77.51074219 184.60009766 C77.96094727 185.68983887 78.41115234 186.77958008 78.875 187.90234375 C79.45894531 189.31761353 79.45894531 189.31761353 80.0546875 190.76147461 C80.65944533 192.19355739 81.30478879 193.60957758 82 195 C54.94 194.67 27.88 194.34 0 194 C0 129.98 0 65.96 0 0 Z " fill="#A2B8DA" transform="translate(0,0)"/>
<path d="M0 0 C2.80590014 3.74120019 4.4867985 7.203356 6.1953125 11.48046875 C6.4997226 12.22835159 6.80413269 12.97623444 7.11776733 13.7467804 C7.77808523 15.37084169 8.43574967 16.9959838 9.09106445 18.62207031 C10.50650821 22.13410881 11.93469336 25.6409209 13.36212158 29.14810181 C14.11110147 30.98863814 14.85942293 32.82944253 15.6071167 34.67050171 C19.17460711 43.45007777 22.80228414 52.20415107 26.44134521 60.95425415 C32.3324561 75.1206012 38.18580498 89.30192097 44 103.5 C51.28496898 121.28840569 58.64034294 139.04714393 66.0123291 156.79963684 C68.24751247 162.18340819 70.47740092 167.56934282 72.703125 172.95703125 C72.98798767 173.64641785 73.27285034 174.33580444 73.56634521 175.04608154 C74.88203394 178.2303879 76.19696001 181.4150039 77.51074219 184.60009766 C77.96094727 185.68983887 78.41115234 186.77958008 78.875 187.90234375 C79.45894531 189.31761353 79.45894531 189.31761353 80.0546875 190.76147461 C80.65944533 192.19355739 81.30478879 193.60957758 82 195 C54.94 194.67 27.88 194.34 0 194 C0 129.98 0 65.96 0 0 Z M7 35 C7 85.16 7 135.32 7 187 C28.12 187 49.24 187 71 187 C66.31974127 174.39641692 66.31974127 174.39641692 61.22265625 161.98828125 C60.54552871 160.41017522 59.86844727 158.8320494 59.19140625 157.25390625 C58.84480957 156.44969238 58.49821289 155.64547852 58.14111328 154.81689453 C52.09421746 140.77681819 46.19765445 126.68521737 40.5 112.5 C33.56220765 95.23834521 26.31157436 78.11713995 18.99246216 61.01422119 C15.29136394 52.35839165 11.64457187 43.67974783 8 35 C7.67 35 7.34 35 7 35 Z " fill="#060708" transform="translate(0,0)"/>
</svg>
