<?xml version="1.0" encoding="UTF-8"?>
<svg version="1.1" xmlns="http://www.w3.org/2000/svg" width="372" height="52">
<path d="M0 0 C122.76 0.33 245.52 0.66 372 1 C372 17.5 372 34 372 51 C249.24 51.33 126.48 51.66 0 52 C0 34.84 0 17.68 0 0 Z " fill="#A0B6D9" transform="translate(0,0)"/>
<path d="M0 0 C122.76 0.33 245.52 0.66 372 1 C372 17.5 372 34 372 51 C249.24 51.33 126.48 51.66 0 52 C0 34.84 0 17.68 0 0 Z M7 7 C7 19.21 7 31.42 7 44 C125.47 44 243.94 44 366 44 C366 31.79 366 19.58 366 7 C247.53 7 129.06 7 7 7 Z " fill="#020203" transform="translate(0,0)"/>
<path d="M0 0 C2.88017083 1.87980615 4.51718812 3.90779473 6 7 C6.61196879 10.94379885 6.38686787 13.10409547 4.8125 16.75 C1.79022645 20.50178785 -0.66624923 21.80599989 -5.4375 22.5 C-10.16675851 21.83624442 -11.65681791 20.34318209 -15 17 C-16.75402527 13.49194946 -16.53218074 9.82785423 -16 6 C-12.50735181 -0.86486024 -7.35028905 -1.78384208 0 0 Z " fill="#060708" transform="translate(30,15)"/>
<path d="M0 0 C1.67542976 0.28604898 3.34385343 0.61781233 5 1 C5 2.65 5 4.3 5 6 C2.625 6.625 2.625 6.625 0 7 C-0.66 6.34 -1.32 5.68 -2 5 C-1.46428571 1.46428571 -1.46428571 1.46428571 0 0 Z " fill="#EAEAEA" transform="translate(23,22)"/>
</svg>
