<?xml version="1.0" encoding="UTF-8"?>
<svg version="1.1" xmlns="http://www.w3.org/2000/svg" width="139" height="151">
<path d="M0 0 C45.87 0 91.74 0 139 0 C139 49.83 139 99.66 139 151 C93.13 151 47.26 151 0 151 C0 101.17 0 51.34 0 0 Z " fill="#A1B6D8" transform="translate(0,0)"/>
<path d="M0 0 C45.87 0 91.74 0 139 0 C139 49.83 139 99.66 139 151 C93.13 151 47.26 151 0 151 C0 101.17 0 51.34 0 0 Z M6 6 C6 51.87 6 97.74 6 145 C47.91 145 89.82 145 133 145 C133 99.13 133 53.26 133 6 C91.09 6 49.18 6 6 6 Z " fill="#050506" transform="translate(0,0)"/>
<path d="M0 0 C10.23 0 20.46 0 31 0 C31 33.99 31 67.98 31 103 C20.77 103 10.54 103 0 103 C0 69.01 0 35.02 0 0 Z " fill="#393A3D" transform="translate(24,24)"/>
<path d="M0 0 C14.19 0 28.38 0 43 0 C43 14.19 43 28.38 43 43 C28.81 43 14.62 43 0 43 C0 28.81 0 14.62 0 0 Z " fill="#020203" transform="translate(72,24)"/>
<path d="M0 0 C5.61 0 11.22 0 17 0 C17 29.37 17 58.74 17 89 C11.39 89 5.78 89 0 89 C0 59.63 0 30.26 0 0 Z " fill="#FFFFFF" transform="translate(31,31)"/>
<path d="M0 0 C9.57 0 19.14 0 29 0 C29 9.9 29 19.8 29 30 C19.43 30 9.86 30 0 30 C0 20.1 0 10.2 0 0 Z " fill="#FCFCFC" transform="translate(79,30)"/>
<path d="M0 0 C1.98 0 3.96 0 6 0 C6 47.19 6 94.38 6 143 C4.02 143 2.04 143 0 143 C0 95.81 0 48.62 0 0 Z " fill="#000000" transform="translate(133,4)"/>
<path d="M0 0 C6.59234052 -0.22346917 10.57302831 -0.09602101 15.75 4.375 C19.47096881 8.71613028 19.29667829 13.0476892 19.20703125 18.59765625 C18.92367611 21.88564516 18.23054242 23.55359864 16 26 C10.65307461 29.95672479 6.56823059 30.7551068 0 30 C-4.37917519 29.25636648 -5.59362683 28.51331347 -8.375 25 C-10.62441895 20.43472356 -10.89861403 15.97336387 -10 11 C-8.76445919 7.91114798 -7.31674421 5.39814333 -5 3 C-2.1875 2 -2.1875 2 0 2 C0 1.34 0 0.68 0 0 Z " fill="#F5F5F5" transform="translate(89,90)"/>
<path d="M0 0 C1.33141475 0.34091589 2.66423671 0.67654162 4 1 C4 1.66 4 2.32 4 3 C4.5775 3.20625 5.155 3.4125 5.75 3.625 C8.90583178 5.55356387 10.23314155 7.78179353 12 11 C12.25 13.875 12.25 13.875 12 16 C12.66 16 13.32 16 14 16 C14.70832144 22.37489298 13.4900056 26.22996802 9.9609375 31.58984375 C6.02109985 36.43223385 1.46132155 40.48598903 -4.8671875 41.42578125 C-7.29081678 41.43607996 -9.59966809 41.32174662 -12 41 C-12 40.34 -12 39.68 -12 39 C-13.010625 39 -14.02125 39 -15.0625 39 C-19.66141382 38.35633863 -21.71540263 35.62376498 -24.48828125 32.109375 C-27.93967111 27.29348217 -29.67993439 23.39046595 -29.48828125 17.44921875 C-28.5487947 12.7367542 -26.03273065 8.67962044 -23 5 C-20.796875 3.71484375 -20.796875 3.71484375 -19 3 C-19 2.34 -19 1.68 -19 1 C-11.94330206 -1.74017916 -7.20910077 -2.30018001 0 0 Z M-12 4 C-12 4.66 -12 5.32 -12 6 C-12.9075 6.185625 -13.815 6.37125 -14.75 6.5625 C-18.2246421 8.09936093 -19.6172449 9.47175443 -21.3046875 12.875 C-23.07887395 18.29723275 -22.91997696 23.86727335 -20.375 29 C-17.59362683 32.51331347 -16.37917519 33.25636648 -12 34 C-5.43176941 34.7551068 -1.34692539 33.95672479 4 30 C7.49288071 26.16909858 7.39505792 22.32194159 7.21875 17.36328125 C6.6893179 11.64352374 4.32035335 8.70316002 0 5 C-3.66043491 3.35911539 -8.06251836 3.93437531 -12 4 Z " fill="#1A1B1D" transform="translate(101,86)"/>
<path d="M0 0 C9.57 0 19.14 0 29 0 C29 0.66 29 1.32 29 2 C27.92516357 2.029729 27.92516357 2.029729 26.82861328 2.06005859 C23.5936937 2.15509519 20.35943906 2.26486019 17.125 2.375 C15.43310547 2.42140625 15.43310547 2.42140625 13.70703125 2.46875 C12.63066406 2.50742187 11.55429687 2.54609375 10.4453125 2.5859375 C9.45031738 2.6173584 8.45532227 2.6487793 7.43017578 2.68115234 C4.82145483 2.77247083 4.82145483 2.77247083 3 5 C3.66 5.33 4.32 5.66 5 6 C5 35.37 5 64.74 5 95 C4.01 95.495 4.01 95.495 3 96 C5.60088622 98.60088622 6.82137113 98.29962225 10.4453125 98.4140625 C11.52167969 98.45273438 12.59804688 98.49140625 13.70703125 98.53125 C14.83496094 98.5621875 15.96289062 98.593125 17.125 98.625 C18.26066406 98.66367188 19.39632812 98.70234375 20.56640625 98.7421875 C23.37743956 98.83667601 26.18846233 98.92223541 29 99 C29 99.66 29 100.32 29 101 C19.43 101 9.86 101 0 101 C0 67.67 0 34.34 0 0 Z " fill="#000000" transform="translate(25,25)"/>
<path d="M0 0 C2.475 0.99 2.475 0.99 5 2 C5 32.36 5 62.72 5 94 C3.35 93.67 1.7 93.34 0 93 C0 62.31 0 31.62 0 0 Z " fill="#000000" transform="translate(49,29)"/>
<path d="M0 0 C14.19 0 28.38 0 43 0 C43 14.19 43 28.38 43 43 C28.81 43 14.62 43 0 43 C0 42.67 0 42.34 0 42 C13.86 42 27.72 42 42 42 C42 29.46 42 16.92 42 4 C40.68 4.33 39.36 4.66 38 5 C37.67 16.22 37.34 27.44 37 39 C36.67 39 36.34 39 36 39 C36 28.11 36 17.22 36 6 C26.43 6 16.86 6 7 6 C7 15.9 7 25.8 7 36 C6.67 36 6.34 36 6 36 C6 26.43 6 16.86 6 7 C5.34 7 4.68 7 4 7 C4.66 5.68 5.32 4.36 6 3 C17.88 3 29.76 3 42 3 C42 2.34 42 1.68 42 1 C28.14 1 14.28 1 0 1 C0 0.67 0 0.34 0 0 Z " fill="#353940" transform="translate(72,24)"/>
<path d="M0 0 C1.32 0.33 2.64 0.66 4 1 C4 1.66 4 2.32 4 3 C45.25 3 86.5 3 129 3 C129.33 2.34 129.66 1.68 130 1 C131.98 1.66 133.96 2.32 136 3 C136 3.33 136 3.66 136 4 C91.78 4 47.56 4 2 4 C1.34 2.68 0.68 1.36 0 0 Z " fill="#131518" transform="translate(3,144)"/>
<path d="M0 0 C7.26 0 14.52 0 22 0 C22.33 0.66 22.66 1.32 23 2 C25.02463255 2.65213292 25.02463255 2.65213292 27 3 C27 2.34 27 1.68 27 1 C26.01 0.67 25.02 0.34 24 0 C25.32 0 26.64 0 28 0 C28 2.31 28 4.62 28 7 C17.77 7 7.54 7 -3 7 C-3 6.67 -3 6.34 -3 6 C6.9 6 16.8 6 27 6 C27 5.34 27 4.68 27 4 C26.2886792 4.02094727 25.5773584 4.04189453 24.84448242 4.06347656 C21.62563172 4.14655725 18.40700634 4.19863466 15.1875 4.25 C14.06794922 4.28351563 12.94839844 4.31703125 11.79492188 4.3515625 C10.72177734 4.36445312 9.64863281 4.37734375 8.54296875 4.390625 C7.0583313 4.4220459 7.0583313 4.4220459 5.54370117 4.45410156 C3 4 3 4 0 0 Z " fill="#1E2126" transform="translate(27,120)"/>
<path d="M0 0 C7.26 0 14.52 0 22 0 C22.33 0.99 22.66 1.98 23 3 C22.34 3 21.68 3 21 3 C21 2.34 21 1.68 21 1 C15.39 1 9.78 1 4 1 C4 1.66 4 2.32 4 3 C2.68 2.34 1.36 1.68 0 1 C0 0.67 0 0.34 0 0 Z " fill="#343434" transform="translate(27,120)"/>
<path d="M0 0 C0.84755859 0.00966797 1.69511719 0.01933594 2.56835938 0.02929688 C3.44943359 0.05443359 4.33050781 0.07957031 5.23828125 0.10546875 C6.13095703 0.11900391 7.02363281 0.13253906 7.94335938 0.14648438 C10.14644291 0.18182796 12.34830707 0.23116382 14.55078125 0.29296875 C14.55078125 1.28296875 14.55078125 2.27296875 14.55078125 3.29296875 C14.22078125 2.63296875 13.89078125 1.97296875 13.55078125 1.29296875 C7.94078125 1.29296875 2.33078125 1.29296875 -3.44921875 1.29296875 C-3.77921875 2.28296875 -4.10921875 3.27296875 -4.44921875 4.29296875 C-5.43921875 3.96296875 -6.42921875 3.63296875 -7.44921875 3.29296875 C-5.08036651 0.42052834 -3.69085058 -0.07431243 0 0 Z " fill="#2D3035" transform="translate(34.44921875,26.70703125)"/>
<path d="M0 0 C0.33 0 0.66 0 1 0 C1 1.98 1 3.96 1 6 C-1.4375 5.625 -1.4375 5.625 -4 5 C-4.33 4.34 -4.66 3.68 -5 3 C-3.35 3 -1.7 3 0 3 C0 2.01 0 1.02 0 0 Z " fill="#181B20" transform="translate(54,24)"/>
</svg>
